<svg width="959" height="814" viewBox="0 0 959 814" fill="none" xmlns="http://www.w3.org/2000/svg">
<path fill-rule="evenodd" clip-rule="evenodd" d="M417.342 141.205C505.301 137.697 587.448 179.609 651.284 240.223C716.981 302.604 767.574 383.57 768.003 474.164C768.434 565.111 718.896 647.117 653.511 710.333C589.337 772.378 506.532 816.81 417.342 813.193C331.042 809.694 259.575 754.06 199.582 691.925C140.907 631.154 89.659 558.638 90.0017 474.164C90.3434 389.958 142.307 318.213 201.342 258.164C261.015 197.467 332.292 144.596 417.342 141.205Z" fill="white" fill-opacity="0.1"/>
<path fill-rule="evenodd" clip-rule="evenodd" d="M327.342 0.204703C415.301 -3.3027 497.448 38.6091 561.284 99.2226C626.981 161.604 677.574 242.57 678.003 333.164C678.434 424.111 628.896 506.117 563.511 569.333C499.337 631.378 416.532 675.81 327.342 672.193C241.042 668.694 169.575 613.06 109.582 550.925C50.9065 490.154 -0.341029 417.638 0.00170935 333.164C0.343366 248.958 52.3071 177.213 111.342 117.164C171.015 56.4673 242.292 3.59611 327.342 0.204703Z" fill="white" fill-opacity="0.1"/>
<path fill-rule="evenodd" clip-rule="evenodd" d="M607.342 57.2047C695.301 53.6973 777.448 95.6091 841.284 156.223C906.981 218.604 957.574 299.57 958.003 390.164C958.434 481.111 908.896 563.117 843.511 626.333C779.337 688.378 696.532 732.81 607.342 729.193C521.042 725.694 449.575 670.06 389.582 607.925C330.907 547.154 279.659 474.638 280.002 390.164C280.343 305.958 332.307 234.213 391.342 174.164C451.015 113.467 522.292 60.5961 607.342 57.2047Z" fill="white" fill-opacity="0.1"/>
</svg>
