<svg width="42" height="31" viewBox="0 0 42 31" fill="none" xmlns="http://www.w3.org/2000/svg">
<path d="M13 22V25" stroke="#FFA500" stroke-width="2" stroke-linecap="round"/>
<path d="M6.63623 19.364L4.51491 21.4853" stroke="#FFA500" stroke-width="2" stroke-linecap="round"/>
<path d="M4 13H1" stroke="#FFA500" stroke-width="2" stroke-linecap="round"/>
<path d="M6.63623 6.63605L4.51491 4.51473" stroke="#FFA500" stroke-width="2" stroke-linecap="round"/>
<path d="M13 4V1" stroke="#FFA500" stroke-width="2" stroke-linecap="round"/>
<path d="M19.3638 6.63605L21.4851 4.51473" stroke="#FFA500" stroke-width="2" stroke-linecap="round"/>
<path d="M22 13H25" stroke="#FFA500" stroke-width="2" stroke-linecap="round"/>
<path d="M19.3638 19.364L21.4851 21.4853" stroke="#FFA500" stroke-width="2" stroke-linecap="round"/>
<path d="M13 18C15.7614 18 18 15.7614 18 13C18 10.2386 15.7614 8 13 8C10.2386 8 8 10.2386 8 13C8 15.7614 10.2386 18 13 18Z" fill="#FFA500" stroke="#FFA500" stroke-width="2"/>
<path d="M40.7001 21.4C40.7001 16.8 37.0001 13.2 32.5001 13.2C31.5001 13.2 30.6001 13.4 29.7001 13.7C29.4001 10.3 26.6001 7.5 23.1001 7.5C19.4001 7.5 16.4001 10.5 16.4001 14.2C16.4001 15 16.6001 15.8 16.8001 16.5C16.5001 16.4 16.1001 16.4 15.8001 16.4C12.1001 16.4 9.1001 19.4 9.1001 23.1C9.1001 26.7 12.0001 29.7 15.6001 29.8H32.8001C37.2001 29.3 40.7001 25.8 40.7001 21.4Z" fill="#C6DEFF" stroke="white" stroke-width="1.2" stroke-linejoin="round"/>
</svg>
