<svg width="34" height="30" viewBox="0 0 34 30" fill="none" xmlns="http://www.w3.org/2000/svg">
<path d="M23.5201 9.34C23.5201 6.58 21.3001 4.42 18.6001 4.42C18.0001 4.42 17.4601 4.54 16.9201 4.72C16.7401 2.68 15.0601 1 12.9601 1C10.7401 1 8.94006 2.8 8.94006 5.02C8.94006 5.5 9.06006 5.98 9.18006 6.4C9.00006 6.34 8.76006 6.34 8.58006 6.34C6.36006 6.34 4.56006 8.14 4.56006 10.36C4.56006 12.52 6.30006 14.32 8.46006 14.38H18.7801C21.4201 14.08 23.5201 11.98 23.5201 9.34Z" fill="#91C0F8" stroke="white" stroke-width="0.72" stroke-linejoin="round"/>
<path d="M32.6 20.5C32.6 15.9 28.9 12.3 24.4 12.3C23.4 12.3 22.5 12.5 21.6 12.8C21.3 9.40001 18.5 6.60001 15 6.60001C11.3 6.60001 8.3 9.60001 8.3 13.3C8.3 14.1 8.5 14.9 8.7 15.6C8.4 15.5 8 15.5 7.7 15.5C4 15.5 1 18.5 1 22.2C1 25.8 3.9 28.8 7.5 28.9H24.7C29.1 28.4 32.6 24.9 32.6 20.5Z" fill="#57A0EE" stroke="white" stroke-width="1.2" stroke-linejoin="round"/>
</svg>
