<svg width="34" height="31" viewBox="0 0 34 31" fill="none" xmlns="http://www.w3.org/2000/svg">
<path d="M32.6 14.9C32.6 10.3 28.9 6.7 24.4 6.7C23.4 6.7 22.5 6.9 21.6 7.2C21.3 3.8 18.5 1 15 1C11.3 1 8.3 4 8.3 7.7C8.3 8.5 8.5 9.3 8.7 10C8.4 9.9 8 9.9 7.7 9.9C4 9.9 1 12.9 1 16.6C1 20.2 3.9 23.2 7.5 23.3H24.7C29.1 22.8 32.6 19.3 32.6 14.9Z" fill="#57A0EE" stroke="white" stroke-width="1.2" stroke-linejoin="round"/>
<path d="M15.8999 25V30" stroke="#57A0EE" stroke-width="1.2" stroke-linecap="round"/>
<path d="M17.6675 25.7322L14.1319 29.2678" stroke="#57A0EE" stroke-linecap="round"/>
<path d="M18.3999 27.5H13.3999" stroke="#57A0EE" stroke-linecap="round"/>
<path d="M17.6675 29.2678L14.1319 25.7322" stroke="#57A0EE" stroke-linecap="round"/>
</svg>
