<svg width="34" height="36" viewBox="0 0 34 36" fill="none" xmlns="http://www.w3.org/2000/svg">
<path d="M32.6 14.9C32.6 10.3 28.9 6.7 24.4 6.7C23.4 6.7 22.5 6.9 21.6 7.2C21.3 3.8 18.5 1 15 1C11.3 1 8.3 4 8.3 7.7C8.3 8.5 8.5 9.3 8.7 10C8.4 9.9 8 9.9 7.7 9.9C4 9.9 1 12.9 1 16.6C1 20.2 3.9 23.2 7.5 23.3H24.7C29.1 22.8 32.6 19.3 32.6 14.9Z" fill="#57A0EE" stroke="white" stroke-width="1.2" stroke-linejoin="round"/>
<path d="M9.5 25V30" stroke="#57A0EE" stroke-width="1.2" stroke-linecap="round"/>
<path d="M11.2676 25.7322L7.73204 29.2678" stroke="#57A0EE" stroke-linecap="round"/>
<path d="M12 27.5H7" stroke="#57A0EE" stroke-linecap="round"/>
<path d="M11.2676 29.2678L7.73204 25.7322" stroke="#57A0EE" stroke-linecap="round"/>
<path d="M20.8999 25V30" stroke="#57A0EE" stroke-width="1.2" stroke-linecap="round"/>
<path d="M22.6675 25.7322L19.1319 29.2678" stroke="#57A0EE" stroke-linecap="round"/>
<path d="M23.3999 27.5H18.3999" stroke="#57A0EE" stroke-linecap="round"/>
<path d="M22.6675 29.2678L19.1319 25.7322" stroke="#57A0EE" stroke-linecap="round"/>
<path d="M15.5 30V35" stroke="#57A0EE" stroke-width="1.2" stroke-linecap="round"/>
<path d="M17.2676 30.7322L13.732 34.2678" stroke="#57A0EE" stroke-linecap="round"/>
<path d="M18 32.5H13" stroke="#57A0EE" stroke-linecap="round"/>
<path d="M17.2676 34.2678L13.732 30.7322" stroke="#57A0EE" stroke-linecap="round"/>
</svg>
